<?xml version="1.0" standalone="no"?><!DOCTYPE svg PUBLIC "-//W3C//DTD SVG 1.1//EN" "http://www.w3.org/Graphics/SVG/1.1/DTD/svg11.dtd"><svg class="icon" width="200px" height="200.00px" viewBox="0 0 1024 1024" version="1.1" xmlns="http://www.w3.org/2000/svg"><path d="M828.4672 760.4736c-41.5232-27.8016-74.1888-18.2784-74.1888-18.2784l-1.9456-2.6624c-82.1248 64.8704-179.2 51.6096-232.1408 30.6688-5.7344 1.536-12.4416 2.9696-19.712 4.2496l-2.304 30.464c-0.6656 1.6896 34.8672 61.7984 177.0496 92.2112 142.1824 30.4128 213.7088-31.3856 272.5376-70.6048-41.216 0.9728-57.9584-24.9856-119.296-66.048z" fill="#BFE5BD" /><path d="M344.9856 770.2016c-49.3568-11.6224-87.3984-28.8768-116.736-48.5376l-5.6832 5.5296s-148.3776 20.9408-146.8928 169.472c24.9856-11.776 57.856-16.6912 118.1184-7.3728s267.6736 60.6208 311.7568-106.9568l4.1984-9.6768c-39.2704 8.3456-104.96 13.056-164.7616-2.4576z" fill="#BFE5BD" /><path d="M509.7984 772.608c-39.3216 8.3968-105.0112 13.1072-164.7616-2.4576-49.3568-11.6224-87.3984-28.8768-116.736-48.5376l-5.6832 5.5296s-13.6704 1.9456-32.6144 8.7552c20.7872 45.4144 81.8688 131.0208 248.064 140.7488 30.6176-18.3808 55.3472-47.9744 67.5328-94.3104l4.1984-9.728z" fill="#A2DD9E" /><path d="M637.0304 887.552c66.56-6.7584 136.3456-38.0928 191.232-127.1808-41.4208-27.648-73.984-18.176-73.984-18.176l-1.9456-2.6624c-82.1248 64.8704-179.2 51.6096-232.1408 30.6688-5.7344 1.536-12.4416 2.9696-19.712 4.2496l-2.304 30.464c-0.6144 1.4848 28.3648 50.7392 138.8544 82.6368z" fill="#A2DD9E" /><path d="M522.3936 171.4176l0.1024 0.1536a402.944 402.944 0 0 0-21.248-18.3808c-103.2704-82.3808-125.4912 7.8336-133.3248 27.4432-7.8336 19.6096-22.3744 46.08-69.9392 75.4688s-186.2656 132.352-163.7376 317.6448c0 36.3008 30.4128 153.9072 210.7904 196.4032 65.3824 16.9984 137.9328 9.7792 175.1552 0 72.5504 28.7744 228.096 43.1616 314.368-138.5472s-105.3184-391.5776-312.1664-460.1856z" fill="#FF8697" /><path d="M541.9008 178.3296l0.768 13.0048s290.816 268.1856 161.1264 470.4768c-38.144 44.4416-112.9984 65.3824-181.4528 65.3824-68.4544 15.6672-266.3424 24.4224-370.0224-88.4224 24.2688 47.4624 78.336 104.5504 192.6144 131.4816 65.3824 16.9984 137.9328 9.7792 175.1552 0 72.5504 28.7744 228.096 43.1616 314.368-138.5472 83.6608-176.0768-93.3888-378.4704-292.5568-453.376z" fill="#E8627F" /><path d="M962.4064 821.8624a15.30368 15.30368 0 0 0-15.0016-10.752c-23.6032 0.6144-37.7856-10.0352-65.6896-31.1296-12.3904-9.4208-26.4704-20.0704-44.6976-32.256-17.8176-11.9296-34.4576-17.7664-48.2816-20.4288 22.9888-24.1152 42.9568-53.76 59.6992-89.088 34.56-72.7552 29.6448-154.3168-14.1312-235.9296a15.37024 15.37024 0 0 0-20.7872-6.2976c-7.4752 3.9936-10.2912 13.312-6.2976 20.7872 27.1872 50.688 51.5584 127.9488 13.4144 208.2304-96.2048 202.6496-274.7904 138.8544-294.8608 130.8672-3.0208-1.2288-6.4-1.3824-9.5744-0.5632-40.0384 10.5472-109.5168 15.0528-167.7312-0.1024-196.6592-46.336-198.9632-180.1216-198.9632-181.4528 0-0.6144-0.0512-1.2288-0.1024-1.8432C127.8464 394.24 263.8336 295.2704 306.0224 269.1584c50.6368-31.3344 67.2768-60.7232 76.1344-82.8416 0.6144-1.536 1.3312-3.4816 2.0992-5.6832 4.9152-13.7216 14.1312-39.2704 34.1504-44.9536 17.5104-4.9664 42.8032 5.2736 73.216 29.5424 6.7072 5.376 13.568 11.264 20.5312 17.7152l0.1536 0.1536c30.1568 27.904 62.6176 65.8432 96.7168 113.2032a15.3856 15.3856 0 0 0 21.4528 3.4816c6.8608-4.9664 8.448-14.5408 3.4816-21.4528-17.408-24.1152-34.4064-45.9264-51.0464-65.3824 73.2672 35.7888 140.544 88.3712 187.4944 148.0704 3.0208 3.84 7.5264 5.888 12.0832 5.888a15.32416 15.32416 0 0 0 12.032-24.832c-63.5904-80.8448-162.1504-149.4016-264.1408-183.9616-6.656-6.0416-13.2096-11.6736-19.6096-16.7936-39.5776-31.5904-72.5504-43.0592-100.7104-35.072-35.2256 9.984-48.384 46.5408-54.7328 64.1024-0.6656 1.8432-1.2288 3.4304-1.7408 4.7104-7.5264 18.8416-20.992 41.6768-63.744 68.1472-46.0288 28.4672-194.2528 136.4992-171.008 331.6736 0.3584 35.2256 19.5584 94.0544 78.3872 142.848-44.6464 13.5168-138.1888 56.5248-136.96 179.2a15.3088 15.3088 0 0 0 7.2192 12.8512c4.4544 2.7648 9.984 3.1232 14.6944 0.8704 18.176-8.5504 45.3632-15.9744 109.2608-6.0928 4.6592 0.7168 10.1888 1.6896 16.4864 2.816 24.8832 4.352 62.5152 10.9568 102.656 11.9296h0.3584c8.2944 0 15.1552-6.656 15.36-15.0016a15.34464 15.34464 0 0 0-15.0016-15.7184c-37.8368-0.9216-74.0864-7.2704-98.0992-11.4688-6.5024-1.1264-12.288-2.1504-17.1008-2.9184-44.1856-6.8096-76.9024-6.8608-104.0896 0.3072 12.288-113.1008 127.3344-131.2256 132.6592-132.0448 1.792-0.256 3.4304-0.8704 4.9664-1.6896 29.5424 18.1248 66.1504 33.6896 111.4624 44.3392 52.1728 13.568 106.3936 12.2368 145.3056 7.0656-16.7424 48.128-50.8416 77.6192-103.8848 89.9584-8.2432 1.9456-13.4144 10.1888-11.4688 18.432a15.40096 15.40096 0 0 0 14.9504 11.8784c1.1776 0 2.304-0.1536 3.4816-0.4096 51.2-11.8784 88.576-38.2464 111.7696-78.4896 22.2208 22.0672 71.3216 57.344 170.6496 78.592 27.4432 5.888 52.4288 8.3968 75.3664 8.3968 90.624 0 148.4288-39.7312 193.024-70.4 5.4272-3.7376 10.7008-7.3728 15.9232-10.8544a15.32928 15.32928 0 0 0 6.1952-17.408z m-284.0064 60.2112c-111.4624-23.808-152.832-65.9968-163.2256-79.0016 1.8944-5.3248 3.6352-10.752 5.12-16.4352 18.4832 6.7584 51.6096 16.1792 92.16 16.1792 19.7632 0 41.2672-2.2528 63.6928-8.192a233.12896 233.12896 0 0 0 78.336-37.2224c1.28 0 2.56-0.1024 3.8912-0.4608 1.0752-0.3072 27.1872-6.7584 61.5424 16.2816 17.5104 11.7248 31.1808 22.0672 43.264 31.232 17.0496 12.9024 30.8224 23.3472 45.7728 29.9008-51.9168 34.9696-117.9648 71.7824-230.5536 47.7184z" fill="#000F04" /><path d="M703.8464 431.2576c-5.4272 0-10.6496-2.8672-13.4656-7.936-0.1536-0.3072-17.5616-31.7952-44.8-73.728a15.36 15.36 0 0 1 25.7536-16.7424c27.904 42.9056 45.2608 74.3424 45.9776 75.6224 4.096 7.424 1.3824 16.7936-6.0416 20.8384-2.3552 1.3312-4.9152 1.9456-7.424 1.9456z" fill="#000F04" /></svg>